<svg width="24" height="24" viewBox="0 0 24 24" fill="none" xmlns="http://www.w3.org/2000/svg">
<path fill-rule="evenodd" clip-rule="evenodd" d="M16.127 22.199C16.708 22.5969 17.447 23.0219 18.312 23.3499C19.99 23.9859 21.244 24.0239 21.824 23.9899C23.117 23.9169 23.291 23.0979 22.597 22.08C21.805 20.92 21.042 19.6071 21.117 18.1542C22.3469 16.3375 23.0029 14.1933 23 11.9995C23 5.92476 18.075 1 12 1C5.925 1 1 5.92476 1 11.9995C1 18.0742 5.925 22.9989 12 22.9989C13.458 22.9989 14.851 22.7149 16.127 22.199ZM12 2.9999C9.61305 2.9999 7.32387 3.94807 5.63604 5.63581C3.94821 7.32356 3 9.61263 3 11.9995C3 14.3863 3.94821 16.6754 5.63604 18.3631C7.32387 20.0509 9.61305 20.999 12 20.999C13.37 20.999 14.665 20.694 15.825 20.1491C15.991 20.071 16.1752 20.04 16.3576 20.0596C16.5399 20.0792 16.7134 20.1485 16.859 20.2601C17.382 20.661 18.124 21.14 19.021 21.48C19.411 21.628 19.767 21.735 20.086 21.811C19.753 21.204 19.416 20.4811 19.262 19.8011C19.102 19.0991 18.862 17.8772 19.328 17.2252C20.4185 15.7012 21.0033 13.8734 21 11.9995C21 9.61263 20.0518 7.32356 18.364 5.63581C16.6761 3.94807 14.3869 2.9999 12 2.9999Z" fill="white"/>
</svg>
