<svg width="24" height="24" viewBox="0 0 24 24" fill="none" xmlns="http://www.w3.org/2000/svg">
<path fill-rule="evenodd" clip-rule="evenodd" d="M21.121 2.70697C20.5584 2.14456 19.7955 1.82861 19 1.82861C18.2045 1.82861 17.4416 2.14456 16.879 2.70697L15.199 4.38697L7.293 12.293C7.16494 12.421 7.07404 12.5813 7.03 12.757L6.03 16.757C5.98803 16.9246 5.99018 17.1002 6.03626 17.2667C6.08234 17.4332 6.17077 17.5849 6.29293 17.707C6.41509 17.8292 6.56681 17.9176 6.73331 17.9637C6.89982 18.0098 7.07542 18.0119 7.243 17.97L11.243 16.97C11.4186 16.9259 11.579 16.835 11.707 16.707L19.556 8.85897L21.293 7.12097C21.8554 6.55839 22.1714 5.79547 22.1714 4.99997C22.1714 4.20448 21.8554 3.44156 21.293 2.87897L21.121 2.70697ZM18.293 4.12097C18.4805 3.9335 18.7348 3.82819 19 3.82819C19.2652 3.82819 19.5195 3.9335 19.707 4.12097L19.879 4.29297C20.0665 4.4805 20.1718 4.73481 20.1718 4.99997C20.1718 5.26514 20.0665 5.51944 19.879 5.70697L18.862 6.72397L17.307 5.10697L18.293 4.12097ZM15.893 6.52097L17.448 8.13797L10.488 15.097L8.374 15.626L8.903 13.511L15.893 6.52097ZM4 7.99997C4 7.73476 4.10536 7.4804 4.29289 7.29287C4.48043 7.10533 4.73478 6.99997 5 6.99997H10C10.2652 6.99997 10.5196 6.89462 10.7071 6.70708C10.8946 6.51954 11 6.26519 11 5.99997C11 5.73476 10.8946 5.4804 10.7071 5.29287C10.5196 5.10533 10.2652 4.99997 10 4.99997H5C4.20435 4.99997 3.44129 5.31604 2.87868 5.87865C2.31607 6.44126 2 7.20432 2 7.99997V19C2 19.7956 2.31607 20.5587 2.87868 21.1213C3.44129 21.6839 4.20435 22 5 22H16C16.7956 22 17.5587 21.6839 18.1213 21.1213C18.6839 20.5587 19 19.7956 19 19V14C19 13.7348 18.8946 13.4804 18.7071 13.2929C18.5196 13.1053 18.2652 13 18 13C17.7348 13 17.4804 13.1053 17.2929 13.2929C17.1054 13.4804 17 13.7348 17 14V19C17 19.2652 16.8946 19.5195 16.7071 19.7071C16.5196 19.8946 16.2652 20 16 20H5C4.73478 20 4.48043 19.8946 4.29289 19.7071C4.10536 19.5195 4 19.2652 4 19V7.99997Z" fill="#0080F6" fill-opacity="0.5"/>
</svg>
