<svg width="24" height="24" viewBox="0 0 24 24" fill="none" xmlns="http://www.w3.org/2000/svg">
<path fill-rule="evenodd" clip-rule="evenodd" d="M8.293 4.293C8.48053 4.10553 8.73484 4.00021 9 4.00021C9.26516 4.00021 9.51947 4.10553 9.707 4.293L16.707 11.293C16.8945 11.4805 16.9998 11.7348 16.9998 12C16.9998 12.2652 16.8945 12.5195 16.707 12.707L9.707 19.707C9.5184 19.8892 9.2658 19.99 9.0036 19.9877C8.7414 19.9854 8.49059 19.8802 8.30518 19.6948C8.11977 19.5094 8.0146 19.2586 8.01233 18.9964C8.01005 18.7342 8.11084 18.4816 8.293 18.293L14.586 12L8.293 5.707C8.10553 5.51947 8.00021 5.26516 8.00021 5C8.00021 4.73484 8.10553 4.48053 8.293 4.293Z" fill="#7A8398"/>
</svg>
