<svg width="24" height="24" viewBox="0 0 24 24" fill="none" xmlns="http://www.w3.org/2000/svg">
<path fill-rule="evenodd" clip-rule="evenodd" d="M13.752 2.11096C12.992 0.730023 11.007 0.730023 10.248 2.11096L0.938003 19.0351C0.207003 20.3691 1.17 21.999 2.692 21.999H21.31C22.831 21.999 23.795 20.3691 23.062 19.0351L13.752 2.11096ZM12 3.07491L21.31 19.9991H2.69L12 3.07491ZM12 7.99967C12.2652 7.99967 12.5196 8.10502 12.7071 8.29255C12.8946 8.48008 13 8.73442 13 8.99962V13.9994C13 14.2646 12.8946 14.5189 12.7071 14.7065C12.5196 14.894 12.2652 14.9993 12 14.9993C11.7348 14.9993 11.4804 14.894 11.2929 14.7065C11.1054 14.5189 11 14.2646 11 13.9994V8.99962C11 8.73442 11.1054 8.48008 11.2929 8.29255C11.4804 8.10502 11.7348 7.99967 12 7.99967ZM13.25 17.7492C13.25 18.0807 13.1183 18.3986 12.8839 18.633C12.6495 18.8675 12.3315 18.9991 12 18.9991C11.6685 18.9991 11.3505 18.8675 11.1161 18.633C10.8817 18.3986 10.75 18.0807 10.75 17.7492C10.75 17.4177 10.8817 17.0998 11.1161 16.8654C11.3505 16.631 11.6685 16.4993 12 16.4993C12.3315 16.4993 12.6495 16.631 12.8839 16.8654C13.1183 17.0998 13.25 17.4177 13.25 17.7492Z" fill="#FFA13B"/>
</svg>
